<?xml version="1.0" encoding="utf-8"?>
<!-- Generator: Adobe Illustrator 18.0.0, SVG Export Plug-In . SVG Version: 6.00 Build 0)  -->
<!DOCTYPE svg PUBLIC "-//W3C//DTD SVG 1.1//EN" "http://www.w3.org/Graphics/SVG/1.1/DTD/svg11.dtd">
<svg version="1.1" id="Layer_1" xmlns="http://www.w3.org/2000/svg" xmlns:xlink="http://www.w3.org/1999/xlink" x="0px" y="0px"
	 viewBox="0 0 242.2 286.1" enable-background="new 0 0 242.2 286.1" xml:space="preserve">
<path fill="#FFFFFF" d="M72.5,26.7L171.9,0v89.1l-99.4,9.3V26.7L72.5,26.7z M72.5,189.2l99.4,9.3v87.5L72.5,261V189.2L72.5,189.2z
	 M116.6,103.1l125.6-10.5v102.5l-125.6-10.5L116.6,103.1L116.6,103.1z M66.8,187.6v71.8L0,241.5v-60L66.8,187.6L66.8,187.6z
	 M66.8,107.6v72.5L0,175v-62.4L66.8,107.6L66.8,107.6z M66.8,28.3v71.5L0,106.3V46.1L66.8,28.3L66.8,28.3z"/>
</svg>
