<?xml version="1.0" encoding="utf-8"?>
<!-- Generator: Adobe Illustrator 18.0.0, SVG Export Plug-In . SVG Version: 6.00 Build 0)  -->
<!DOCTYPE svg PUBLIC "-//W3C//DTD SVG 1.1//EN" "http://www.w3.org/Graphics/SVG/1.1/DTD/svg11.dtd">
<svg version="1.1" id="Layer_1" xmlns="http://www.w3.org/2000/svg" xmlns:xlink="http://www.w3.org/1999/xlink" x="0px" y="0px"
	 viewBox="0 0 640 480" enable-background="new 0 0 640 480" xml:space="preserve">
<path fill="#FFFFFF" d="M238.5,44.8L405.2,0v149.5l-166.8,15.6L238.5,44.8L238.5,44.8z M238.5,317.4L405.2,333v146.8l-166.8-41.9
	L238.5,317.4L238.5,317.4z M312.5,173l210.7-17.6v172l-210.7-17.6V173L312.5,173z M228.9,314.7v120.5l-112.1-30V304.5L228.9,314.7
	L228.9,314.7z M228.9,180.5v121.6l-112.1-8.6V188.9L228.9,180.5L228.9,180.5z M228.9,47.5v120l-112.1,10.9v-101L228.9,47.5
	L228.9,47.5z"/>
</svg>
