<?xml version="1.0" encoding="utf-8"?>
<!-- Generator: Adobe Illustrator 18.1.0, SVG Export Plug-In . SVG Version: 6.00 Build 0)  -->
<!DOCTYPE svg PUBLIC "-//W3C//DTD SVG 1.1 Tiny//EN" "http://www.w3.org/Graphics/SVG/1.1/DTD/svg11-tiny.dtd">
<svg version="1.1" baseProfile="tiny" id="Layer_1" xmlns="http://www.w3.org/2000/svg" xmlns:xlink="http://www.w3.org/1999/xlink"
	 x="0px" y="0px" viewBox="0 0 87 73" xml:space="preserve">
<rect y="0" fill="#334049" width="87" height="73"/>
<rect x="12" y="24" fill="#FFFFFF" width="63" height="24"/>
<rect x="39" y="26" fill="#F37A1F" width="29" height="2"/>
<g>
	<path fill="#334049" d="M59.5,40.7c0,0.9-0.4,1.6-1.1,2.3s-1.7,1-2.9,1.1v2.8H54V44c-0.6,0-1.3-0.1-2-0.2s-1.4-0.3-1.8-0.5V41h0.4
		c0.5,0.3,1,0.5,1.7,0.6s1.2,0.3,1.9,0.3v-2.1l-0.8-0.2c-0.5-0.1-0.9-0.2-1.3-0.4s-0.8-0.3-1-0.6s-0.5-0.5-0.7-0.9S50,37,50,36.5
		c0-0.8,0.4-1.4,1.1-2c0.7-0.6,1.7-0.9,2.9-1v-1.8h1.4v1.8c0.5,0,1,0.1,1.7,0.2c0.6,0.1,1.1,0.2,1.5,0.4v2.2h-0.3
		c-0.4-0.2-0.8-0.4-1.3-0.5s-1-0.2-1.6-0.3v2l0.6,0.1c1.2,0.2,2,0.6,2.6,1S59.5,39.8,59.5,40.7z M54.2,37.4v-1.8
		c-0.3,0-0.7,0.1-0.9,0.3s-0.4,0.4-0.4,0.6c0,0.2,0.1,0.4,0.3,0.6C53.3,37.2,53.6,37.3,54.2,37.4z M56.6,41c0-0.3-0.1-0.5-0.4-0.7
		s-0.6-0.2-0.8-0.3v1.9c0.3,0,0.6-0.1,0.9-0.3S56.6,41.3,56.6,41z"/>
</g>
<rect x="12" y="24" fill="#F37A1F" width="20" height="24"/>
</svg>
