<?xml version="1.0" encoding="utf-8"?>
<!-- Generator: Adobe Illustrator 24.3.2, SVG Export Plug-In . SVG Version: 6.00 Build 0)  -->
<svg version="1.1" id="Layer_1" xmlns="http://www.w3.org/2000/svg" xmlns:xlink="http://www.w3.org/1999/xlink" x="0px" y="0px"
	 viewBox="0 0 271.8 135.9" style="enable-background:new 0 0 271.8 135.9;" xml:space="preserve">
<style type="text/css">
	.st0{fill:#F78E1E;}
	.st1{fill:none;}
	.st2{fill:#FFFFFF;}
</style>
<rect class="st0" width="271.8" height="135.9"/>
<path class="st1" d="M247.5,42.5c-3.5,0-6.1,2.7-6.1,6.2s2.6,6.2,6.1,6.2s6.1-2.7,6.1-6.2C253.6,45.3,251,42.5,247.5,42.5z
	 M250,52.9l-2.4-3.7h-1.7v3.7h-1v-8.4h3.2c1.9,0,2.7,0.8,2.7,2.3s-1,2.1-2.1,2.3l2.5,3.7H250V52.9z"/>
<path class="st1" d="M249.8,46.9c0-1.2-1-1.4-2-1.4h-1.9v2.9h1.4C248.5,48.3,249.8,48.3,249.8,46.9z"/>
<polygon class="st2" points="79.4,56.1 94.2,56.1 81.1,92.1 95.6,92.1 108.7,56.1 123.7,56.1 127.9,44.5 83.6,44.5 "/>
<polygon class="st2" points="115.1,92.1 129.6,92.1 147,44.5 132.4,44.5 "/>
<polygon class="st2" points="212.6,44.5 195.3,92.1 240.6,92.1 244.8,80.5 214,80.5 227.1,44.5 "/>
<polygon class="st2" points="157.1,44.5 139.8,92.1 153.7,92.1 160.8,72.5 178.1,72.5 171,92.1 185.3,92.1 202.6,44.5 188.3,44.5 
	182.2,61.3 164.9,61.3 171,44.5 "/>
<path class="st2" d="M54.9,78.9c-0.3,0.9-1.4,1.5-2.1,1.5H24.4L20.2,92h36.6c4,0,7.6-1.9,9.7-7.6l4.4-12c2.1-5.7-0.9-9.7-6-9.7H46.7
	c-1,0-1.4-0.7-1-1.6l1.2-3.2c0.4-1.1,1.2-1.9,2.5-1.9h26.1l4.2-11.6H45c-4.9,0-8.2,3.2-9.8,7.4l-4.6,12.6c-2,5.6,0.8,9.7,6.4,9.7h18
	c0.7,0,1.3,0.7,1,1.5L54.9,78.9z"/>
</svg>
