<?xml version="1.0" encoding="utf-8"?>
<!-- Generator: Adobe Illustrator 18.1.0, SVG Export Plug-In . SVG Version: 6.00 Build 0)  -->
<!DOCTYPE svg PUBLIC "-//W3C//DTD SVG 1.1 Tiny//EN" "http://www.w3.org/Graphics/SVG/1.1/DTD/svg11-tiny.dtd">
<svg version="1.1" baseProfile="tiny" id="Layer_1" xmlns="http://www.w3.org/2000/svg" xmlns:xlink="http://www.w3.org/1999/xlink"
	 x="0px" y="0px" viewBox="0 0 87 73" xml:space="preserve">
<rect y="0" fill="#334049" width="87" height="73"/>
<rect x="33" y="5" fill="#FFFFFF" width="24" height="63"/>
<rect x="33" y="5" fill="#F37A1F" width="24" height="20"/>
<rect x="36" y="29" fill="#F37A1F" width="18" height="2"/>
<g>
	<path fill="#334049" d="M50,59.5c0,0.9-0.4,1.6-1.1,2.3s-1.7,1-2.9,1.1v2.8h-1.4v-2.8c-0.6,0-1.3-0.1-2-0.2
		c-0.8-0.1-1.4-0.3-1.8-0.5v-2.3h0.4c0.5,0.3,1,0.5,1.7,0.6c0.6,0.2,1.2,0.3,1.9,0.3v-2.1l-0.8-0.2c-0.5-0.1-0.9-0.2-1.3-0.4
		s-0.8-0.3-1-0.6S41,57,40.9,56.7c-0.2-0.4-0.2-0.8-0.2-1.3c0-0.8,0.4-1.4,1.1-2c0.7-0.6,1.7-0.9,2.9-1v-1.8H46v1.8
		c0.5,0,1,0.1,1.7,0.2s1.1,0.2,1.5,0.4v2.2h-0.3c-0.4-0.2-0.8-0.4-1.3-0.5s-1-0.2-1.6-0.3v2l0.6,0.1c1.2,0.2,2,0.6,2.6,1
		S50,58.7,50,59.5z M44.8,56.2v-1.8c-0.3,0-0.7,0.1-0.9,0.3s-0.4,0.4-0.4,0.6c0,0.2,0.1,0.4,0.3,0.6S44.2,56.1,44.8,56.2z
		 M47.2,59.8c0-0.3-0.1-0.5-0.4-0.7s-0.6-0.2-0.8-0.3v1.9c0.3,0,0.6-0.1,0.9-0.3S47.2,60.1,47.2,59.8z"/>
</g>
</svg>
